<?xml version="1.0" standalone="no"?>
<svg xmlns="http://www.w3.org/2000/svg" xmlns:xlink="http://www.w3.org/1999/xlink" width="672pt" height="483pt" viewBox="0.00 0.00 672 483">
<g id="graph0" class="graph" transform="translate(4,479) scale(1)" data-name="G">

<polygon fill="white" stroke="none" points="-4,4 -4,-479 668,-479 668,4 -4,4"/>
<g id="clust1" class="cluster" data-name="cluster_0">

<polygon fill="none" stroke="black" stroke-dasharray="5,2" points="-0.44,-266.41 -0.44,-475.41 162.56,-475.41 162.56,-266.41 -0.44,-266.41" style=""/>
<text text-anchor="middle" x="81.06" y="-458.81" font-family="Arial Bold" font-size="14.00" style="">Pre-Trained </text>
<text text-anchor="middle" x="81.06" y="-442.01" font-family="Arial Bold" font-size="14.00" style=""> Language Model</text>
</g>
<g id="clust2" class="cluster" data-name="cluster_1">

<polygon fill="none" stroke="black" stroke-dasharray="5,2" points="527.97,-77.89 527.97,-249.89 663.97,-249.89 663.97,-77.89 527.97,-77.89" style=""/>
<text text-anchor="middle" x="595.97" y="-233.29" font-family="Arial Bold" font-size="14.00" style="">LLMs</text>
</g>
<!-- PreTrainedLM -->
<g id="node1" class="node" pointer-events="visible" data-name="PreTrainedLM">

<path fill="#eca87a" stroke="black" d="M85.54,-378.65C85.54,-378.65 19.71,-378.65 19.71,-378.65 13.71,-378.65 7.71,-372.65 7.71,-366.65 7.71,-366.65 7.71,-331.84 7.71,-331.84 7.71,-325.84 13.71,-319.84 19.71,-319.84 19.71,-319.84 85.54,-319.84 85.54,-319.84 91.54,-319.84 97.54,-325.84 97.54,-331.84 97.54,-331.84 97.54,-366.65 97.54,-366.65 97.54,-372.65 91.54,-378.65 85.54,-378.65"/>
<text text-anchor="middle" x="52.63" y="-361.85" font-family="Arial" font-size="14.00">Pre-Trained</text>
<text text-anchor="middle" x="52.63" y="-345.05" font-family="Arial" font-size="14.00"> Language </text>
<text text-anchor="middle" x="52.63" y="-328.25" font-family="Arial" font-size="14.00"> Model</text>
</g>
<!-- FineTunedModel -->
<g id="node7" class="node" pointer-events="visible" data-name="FineTunedModel">

<path fill="#f3e357" stroke="black" d="M289.16,-282.56C289.16,-282.56 225.97,-282.56 225.97,-282.56 219.97,-282.56 213.97,-276.56 213.97,-270.56 213.97,-270.56 213.97,-253.36 213.97,-253.36 213.97,-247.36 219.97,-241.36 225.97,-241.36 225.97,-241.36 289.16,-241.36 289.16,-241.36 295.16,-241.36 301.16,-247.36 301.16,-253.36 301.16,-253.36 301.16,-270.56 301.16,-270.56 301.16,-276.56 295.16,-282.56 289.16,-282.56"/>
<text text-anchor="middle" x="257.57" y="-266.16" font-family="Arial" font-size="14.00">Fine-Tuned</text>
<text text-anchor="middle" x="257.57" y="-249.36" font-family="Arial" font-size="14.00">Model</text>
</g>
<!-- PreTrainedLM&#45;&gt;FineTunedModel -->
<g id="edge5" class="edge" data-name="PreTrainedLM-&gt;FineTunedModel">

<path fill="none" stroke="black" d="M97.86,-329.98C128.91,-316.75 170.3,-299.13 203.17,-285.13"/>
<polygon fill="black" stroke="black" points="204.29,-288.46 212.12,-281.32 201.55,-282.02 204.29,-288.46"/>
</g>
<!-- TaskA1 -->
<g id="node2" class="node" pointer-events="visible" data-name="TaskA1">

<polygon fill="white" stroke="black" points="154.31,-310.2 99.18,-310.2 95.18,-306.2 95.18,-274.2 150.31,-274.2 154.31,-278.2 154.31,-310.2"/>
<polyline fill="none" stroke="black" points="150.31,-306.2 95.18,-306.2"/>
<polyline fill="none" stroke="black" points="150.31,-306.2 150.31,-274.2"/>
<polyline fill="none" stroke="black" points="150.31,-306.2 154.31,-310.2"/>
<text text-anchor="middle" x="124.75" y="-288" font-family="Arial" font-size="14.00">Task A</text>
</g>
<!-- TaskA1&#45;&gt;PreTrainedLM -->
<g id="edge1" class="edge" data-name="TaskA1-&gt;PreTrainedLM">

<path fill="none" stroke="black" d="M101.53,-310.56C100.74,-311.19 99.94,-311.82 99.13,-312.47"/>
<polygon fill="black" stroke="black" points="97.1,-309.61 91.43,-318.56 101.44,-315.1 97.1,-309.61"/>
</g>
<!-- DatasetD1 -->
<g id="node3" class="node" pointer-events="visible" data-name="DatasetD1">

<polygon fill="lightcoral" stroke="black" points="147.05,-426.72 72.55,-426.72 68.55,-422.72 68.55,-390.72 143.05,-390.72 147.05,-394.72 147.05,-426.72"/>
<polyline fill="none" stroke="black" points="143.05,-422.72 68.55,-422.72"/>
<polyline fill="none" stroke="black" points="143.05,-422.72 143.05,-390.72"/>
<polyline fill="none" stroke="black" points="143.05,-422.72 147.05,-426.72"/>
<text text-anchor="middle" x="107.8" y="-404.52" font-family="Arial" font-size="14.00">Dataset D</text>
</g>
<!-- DatasetD1&#45;&gt;PreTrainedLM -->
<g id="edge2" class="edge" data-name="DatasetD1-&gt;PreTrainedLM">

<path fill="none" stroke="black" d="M90.65,-390.23C89.82,-389.34 88.99,-388.44 88.14,-387.53"/>
<polygon fill="black" stroke="black" points="90.71,-385.15 81.34,-380.2 85.57,-389.91 90.71,-385.15"/>
</g>
<!-- LLMs -->
<g id="node4" class="node" pointer-events="visible" data-name="LLMs">

<path fill="#eca87a" stroke="black" d="M643.73,-169.85C643.73,-169.85 613.73,-169.85 613.73,-169.85 607.73,-169.85 601.73,-163.85 601.73,-157.85 601.73,-157.85 601.73,-145.85 601.73,-145.85 601.73,-139.85 607.73,-133.85 613.73,-133.85 613.73,-133.85 643.73,-133.85 643.73,-133.85 649.73,-133.85 655.73,-139.85 655.73,-145.85 655.73,-145.85 655.73,-157.85 655.73,-157.85 655.73,-163.85 649.73,-169.85 643.73,-169.85"/>
<text text-anchor="middle" x="628.73" y="-147.65" font-family="Arial" font-size="14.00">LLMs</text>
</g>
<!-- PerturbedPromptsDPrime -->
<g id="node13" class="node" pointer-events="visible" data-name="PerturbedPromptsDPrime">

<path fill="#f3e357" stroke="black" d="M502.01,-161.16C502.01,-161.16 417.81,-161.16 417.81,-161.16 411.81,-161.16 405.81,-155.16 405.81,-149.16 405.81,-149.16 405.81,-131.96 405.81,-131.96 405.81,-125.96 411.81,-119.96 417.81,-119.96 417.81,-119.96 502.01,-119.96 502.01,-119.96 508.01,-119.96 514.01,-125.96 514.01,-131.96 514.01,-131.96 514.01,-149.16 514.01,-149.16 514.01,-155.16 508.01,-161.16 502.01,-161.16"/>
<text text-anchor="middle" x="459.91" y="-144.76" font-family="Arial" font-size="14.00">Perturbed Test</text>
<text text-anchor="middle" x="459.91" y="-127.96" font-family="Arial" font-size="14.00">Prompts D`</text>
</g>
<!-- LLMs&#45;&gt;PerturbedPromptsDPrime -->
<g id="edge11" class="edge" data-name="LLMs-&gt;PerturbedPromptsDPrime">

<path fill="none" stroke="black" d="M601.23,-150.01C580.8,-148.65 552.05,-146.72 525.81,-144.97"/>
<polygon fill="black" stroke="black" points="526.08,-141.48 515.87,-144.3 525.61,-148.46 526.08,-141.48"/>
</g>
<!-- TaskA2 -->
<g id="node5" class="node" pointer-events="visible" data-name="TaskA2">

<polygon fill="white" stroke="black" points="615.11,-121.47 559.98,-121.47 555.98,-117.47 555.98,-85.47 611.11,-85.47 615.11,-89.47 615.11,-121.47"/>
<polyline fill="none" stroke="black" points="611.11,-117.47 555.98,-117.47"/>
<polyline fill="none" stroke="black" points="611.11,-117.47 611.11,-85.47"/>
<polyline fill="none" stroke="black" points="611.11,-117.47 615.11,-121.47"/>
<text text-anchor="middle" x="585.55" y="-99.27" font-family="Arial" font-size="14.00">Task A</text>
</g>
<!-- TaskA2&#45;&gt;LLMs -->
<g id="edge3" class="edge" data-name="TaskA2-&gt;LLMs">

<path fill="none" stroke="black" d="M601.87,-121.76C602.84,-122.84 603.82,-123.94 604.81,-125.05"/>
<polygon fill="black" stroke="black" points="602.1,-127.27 611.37,-132.41 607.33,-122.61 602.1,-127.27"/>
</g>
<!-- PromptsD -->
<g id="node6" class="node" pointer-events="visible" data-name="PromptsD">

<polygon fill="lightcoral" stroke="black" points="618.14,-218.11 539.89,-218.11 535.89,-214.11 535.89,-182.11 614.14,-182.11 618.14,-186.11 618.14,-218.11"/>
<polyline fill="none" stroke="black" points="614.14,-214.11 535.89,-214.11"/>
<polyline fill="none" stroke="black" points="614.14,-214.11 614.14,-182.11"/>
<polyline fill="none" stroke="black" points="614.14,-214.11 618.14,-218.11"/>
<text text-anchor="middle" x="577.01" y="-195.91" font-family="Arial" font-size="14.00">Prompts D</text>
</g>
<!-- PromptsD&#45;&gt;LLMs -->
<g id="edge4" class="edge" data-name="PromptsD-&gt;LLMs">

<path fill="none" stroke="black" d="M596.57,-181.86C597.98,-180.54 599.42,-179.2 600.87,-177.84"/>
<polygon fill="black" stroke="black" points="603.12,-180.54 608.04,-171.15 598.34,-175.42 603.12,-180.54"/>
</g>
<!-- PerturbedSetDPrime1 -->
<g id="node8" class="node" pointer-events="visible" data-name="PerturbedSetDPrime1">

<path fill="#d8bfd8" stroke="black" d="M438.22,-265.87C438.22,-265.87 354.02,-265.87 354.02,-265.87 348.02,-265.87 342.02,-259.87 342.02,-253.87 342.02,-253.87 342.02,-236.66 342.02,-236.66 342.02,-230.66 348.02,-224.66 354.02,-224.66 354.02,-224.66 438.22,-224.66 438.22,-224.66 444.22,-224.66 450.22,-230.66 450.22,-236.66 450.22,-236.66 450.22,-253.87 450.22,-253.87 450.22,-259.87 444.22,-265.87 438.22,-265.87"/>
<text text-anchor="middle" x="396.12" y="-249.47" font-family="Arial" font-size="14.00">Perturbed Test</text>
<text text-anchor="middle" x="396.12" y="-232.67" font-family="Arial" font-size="14.00">Set D`</text>
</g>
<!-- FineTunedModel&#45;&gt;PerturbedSetDPrime1 -->
<g id="edge6" class="edge" data-name="FineTunedModel-&gt;PerturbedSetDPrime1">

<path fill="none" stroke="black" d="M301.41,-256.68C310.74,-255.55 320.79,-254.34 330.73,-253.15"/>
<polygon fill="black" stroke="black" points="330.85,-256.66 340.36,-251.98 330.01,-249.71 330.85,-256.66"/>
</g>
<!-- ProposedMethodology -->
<g id="node9" class="node" pointer-events="visible" data-name="ProposedMethodology">

<path fill="lightgreen" stroke="black" d="M251.48,-229.33C251.48,-229.33 100.48,-229.33 100.48,-229.33 94.48,-229.33 88.48,-223.33 88.48,-217.33 88.48,-217.33 88.48,-153.33 88.48,-153.33 88.48,-147.33 94.48,-141.33 100.48,-141.33 100.48,-141.33 251.48,-141.33 251.48,-141.33 257.48,-141.33 263.48,-147.33 263.48,-153.33 263.48,-153.33 263.48,-217.33 263.48,-217.33 263.48,-223.33 257.48,-229.33 251.48,-229.33"/>
<text text-anchor="start" x="98.7" y="-211.73" font-family="Arial" font-weight="bold" font-size="14.00">Proposed Methodology</text>
<text text-anchor="start" x="98.98" y="-190.73" font-family="Arial" font-size="14.00">1. Sequential</text>
<text text-anchor="start" x="98.98" y="-170.73" font-family="Arial" font-size="14.00">2. Mixed</text>
<text text-anchor="start" x="98.98" y="-150.73" font-family="Arial" font-size="14.00">3. Dynamic Mix</text>
</g>
<!-- FineTunedModel&#45;&gt;ProposedMethodology -->
<g id="edge7" class="edge" data-name="FineTunedModel-&gt;ProposedMethodology">

<path fill="none" stroke="black" d="M235.27,-241.02C234.09,-239.91 232.89,-238.78 231.66,-237.63"/>
<polygon fill="black" stroke="black" points="234.11,-235.13 224.42,-230.83 229.32,-240.23 234.11,-235.13"/>
</g>
<!-- DegradedPerformance -->
<g id="node15" class="node" pointer-events="visible" data-name="DegradedPerformance">

<path fill="none" stroke="none" d="M485.53,-214.19C485.53,-214.19 413.24,-214.19 413.24,-214.19 407.24,-214.19 401.24,-208.19 401.24,-202.19 401.24,-202.19 401.24,-184.99 401.24,-184.99 401.24,-178.99 407.24,-172.99 413.24,-172.99 413.24,-172.99 485.53,-172.99 485.53,-172.99 491.53,-172.99 497.53,-178.99 497.53,-184.99 497.53,-184.99 497.53,-202.19 497.53,-202.19 497.53,-208.19 491.53,-214.19 485.53,-214.19"/>
<text text-anchor="middle" x="449.38" y="-197.79" font-family="Arial" font-size="14.00" fill="red">Degraded</text>
<text text-anchor="middle" x="449.38" y="-180.99" font-family="Arial" font-size="14.00" fill="red">Performance</text>
</g>
<!-- PerturbedSetDPrime1&#45;&gt;DegradedPerformance -->
<g id="edge12" class="edge" data-name="PerturbedSetDPrime1-&gt;DegradedPerformance">

<path fill="none" stroke="black" d="M417.78,-224.25C418.54,-223.51 419.3,-222.77 420.07,-222.03"/>
<polygon fill="black" stroke="black" points="422.43,-224.62 427.17,-215.14 417.55,-219.59 422.43,-224.62"/>
</g>
<!-- UpdatedModel -->
<g id="node10" class="node" pointer-events="visible" data-name="UpdatedModel">

<path fill="lightgreen" stroke="black" d="M331.11,-118.14C331.11,-118.14 286.24,-118.14 286.24,-118.14 280.24,-118.14 274.24,-112.14 274.24,-106.14 274.24,-106.14 274.24,-88.94 274.24,-88.94 274.24,-82.94 280.24,-76.94 286.24,-76.94 286.24,-76.94 331.11,-76.94 331.11,-76.94 337.11,-76.94 343.11,-82.94 343.11,-88.94 343.11,-88.94 343.11,-106.14 343.11,-106.14 343.11,-112.14 337.11,-118.14 331.11,-118.14"/>
<text text-anchor="middle" x="308.68" y="-101.74" font-family="Arial" font-size="14.00">Updated</text>
<text text-anchor="middle" x="308.68" y="-84.94" font-family="Arial" font-size="14.00">Model</text>
</g>
<!-- ProposedMethodology&#45;&gt;UpdatedModel -->
<g id="edge8" class="edge" data-name="ProposedMethodology-&gt;UpdatedModel">

<path fill="none" stroke="black" d="M243.1,-140.92C251.42,-135.42 259.72,-129.93 267.48,-124.79"/>
<polygon fill="black" stroke="black" points="269.32,-127.78 275.72,-119.34 265.45,-121.94 269.32,-127.78"/>
</g>
<!-- PerturbedSetDPrime2 -->
<g id="node11" class="node" pointer-events="visible" data-name="PerturbedSetDPrime2">

<path fill="#d8bfd8" stroke="black" d="M334.44,-59.77C334.44,-59.77 250.24,-59.77 250.24,-59.77 244.24,-59.77 238.24,-53.77 238.24,-47.77 238.24,-47.77 238.24,-30.57 238.24,-30.57 238.24,-24.57 244.24,-18.57 250.24,-18.57 250.24,-18.57 334.44,-18.57 334.44,-18.57 340.44,-18.57 346.44,-24.57 346.44,-30.57 346.44,-30.57 346.44,-47.77 346.44,-47.77 346.44,-53.77 340.44,-59.77 334.44,-59.77"/>
<text text-anchor="middle" x="292.34" y="-43.37" font-family="Arial" font-size="14.00">Perturbed Test</text>
<text text-anchor="middle" x="292.34" y="-26.57" font-family="Arial" font-size="14.00">Set D`</text>
</g>
<!-- UpdatedModel&#45;&gt;PerturbedSetDPrime2 -->
<g id="edge9" class="edge" data-name="UpdatedModel-&gt;PerturbedSetDPrime2">

<path fill="none" stroke="black" d="M302.78,-76.46C302.29,-74.71 301.78,-72.91 301.27,-71.09"/>
<polygon fill="black" stroke="black" points="304.65,-70.16 298.58,-61.47 297.91,-72.05 304.65,-70.16"/>
</g>
<!-- RobustPerformance -->
<g id="node12" class="node" pointer-events="visible" data-name="RobustPerformance">

<polygon fill="none" stroke="black" stroke-width="3" points="509.52,-58.83 384.17,-58.83 384.17,-0.03 509.52,-0.03 509.52,-58.83"/>
<text text-anchor="middle" x="446.85" y="-42.03" font-family="Arial" font-size="14.00">ROBUST TO</text>
<text text-anchor="middle" x="446.85" y="-25.23" font-family="Arial" font-size="14.00">PERTURBATION</text>
<text text-anchor="middle" x="446.85" y="-8.43" font-family="Arial" font-size="14.00">IN D`</text>
</g>
<!-- PerturbedSetDPrime2&#45;&gt;RobustPerformance -->
<g id="edge10" class="edge" data-name="PerturbedSetDPrime2-&gt;RobustPerformance">

<path fill="none" stroke="black" d="M346.81,-35.74C354.82,-35.23 363.18,-34.7 371.51,-34.18"/>
<polygon fill="black" stroke="black" points="371.55,-37.68 381.31,-33.56 371.11,-30.7 371.55,-37.68"/>
</g>
<!-- ModifiedPromptDesigns -->
<g id="node14" class="node" pointer-events="visible" data-name="ModifiedPromptDesigns">

<path fill="lightgreen" stroke="black" d="M503.2,-108.72C503.2,-108.72 412.01,-108.72 412.01,-108.72 406.01,-108.72 400.01,-102.72 400.01,-96.72 400.01,-96.72 400.01,-79.52 400.01,-79.52 400.01,-73.52 406.01,-67.52 412.01,-67.52 412.01,-67.52 503.2,-67.52 503.2,-67.52 509.2,-67.52 515.2,-73.52 515.2,-79.52 515.2,-79.52 515.2,-96.72 515.2,-96.72 515.2,-102.72 509.2,-108.72 503.2,-108.72"/>
<text text-anchor="middle" x="457.61" y="-92.32" font-family="Arial" font-size="14.00">Modified</text>
<text text-anchor="middle" x="457.61" y="-75.52" font-family="Arial" font-size="14.00">Prompt Designs</text>
</g>
<!-- PerturbedPromptsDPrime&#45;&gt;ModifiedPromptDesigns -->
<g id="edge15" class="edge" data-name="PerturbedPromptsDPrime-&gt;ModifiedPromptDesigns">

<path fill="none" stroke="black" d="M458.99,-119.53C458.98,-119.43 458.98,-119.32 458.97,-119.21"/>
<polygon fill="black" stroke="black" points="462.53,-120.5 458.6,-110.66 455.54,-120.81 462.53,-120.5"/>
</g>
<!-- PerturbedPromptsDPrime&#45;&gt;DegradedPerformance -->
<g id="edge13" class="edge" data-name="PerturbedPromptsDPrime-&gt;DegradedPerformance">

<path fill="none" stroke="black" d="M455.75,-161.52C455.72,-161.64 455.7,-161.76 455.68,-161.88"/>
<polygon fill="black" stroke="black" points="452.25,-161.15 453.74,-171.64 459.12,-162.52 452.25,-161.15"/>
</g>
<!-- ModifiedPromptDesigns&#45;&gt;RobustPerformance -->
<g id="edge14" class="edge" data-name="ModifiedPromptDesigns-&gt;RobustPerformance">

<path fill="none" stroke="black" d="M453.78,-67.26C453.76,-67.12 453.73,-66.97 453.7,-66.82"/>
<polygon fill="black" stroke="black" points="457.97,-70.67 452.72,-61.46 451.08,-71.93 457.97,-70.67"/>
</g>
</g>
</svg>